<svg width="48" height="49" viewBox="0 0 48 49" fill="none" xmlns="http://www.w3.org/2000/svg">
<g filter="url(#filter0_d_167_534)">
<path d="M16.1663 1.29281H16.6663V1.2832H32.571C38.5356 1.2832 43.4181 6.26789 43.4181 12.3952V29.1692C43.4181 35.2968 38.5353 40.2812 32.5804 40.2812H16.1663C10.2003 40.2812 5.30981 35.3048 5.30981 29.1884V12.4048C5.30981 6.27805 10.2011 1.29281 16.1663 1.29281ZM7.31814 12.4135V12.4144V29.1981C7.31814 34.1842 11.2457 38.2148 16.1663 38.2148H32.5804C37.4836 38.2148 41.4097 34.1827 41.4097 29.1788V12.4048C41.4097 7.4006 37.4833 3.36885 32.571 3.36885H16.1663C11.2535 3.36885 7.32807 7.40093 7.31814 12.4135ZM35.4025 8.4829C35.4025 7.89297 35.8565 7.44489 36.4067 7.44489C36.9568 7.44489 37.4108 7.89297 37.4108 8.4829C37.4108 9.07283 36.9568 9.52092 36.4067 9.52092C35.8565 9.52092 35.4025 9.07283 35.4025 8.4829ZM14.3442 20.787C14.3442 15.1313 18.8689 10.5209 24.3733 10.5209C29.8778 10.5209 34.4025 15.1313 34.4025 20.787C34.4025 26.4428 29.8778 31.0532 24.3733 31.0532C18.8689 31.0532 14.3442 26.4428 14.3442 20.787ZM32.3942 20.787C32.3942 16.2534 28.834 12.597 24.3733 12.597C19.9127 12.597 16.3525 16.2534 16.3525 20.787C16.3525 25.3206 19.9127 28.9771 24.3733 28.9771C28.834 28.9771 32.3942 25.3206 32.3942 20.787Z" fill="#070707" stroke="#070707"/>
</g>
<defs>
<filter id="filter0_d_167_534" x="0.809814" y="0.783203" width="47.1082" height="47.998" filterUnits="userSpaceOnUse" color-interpolation-filters="sRGB">
<feFlood flood-opacity="0" result="BackgroundImageFix"/>
<feColorMatrix in="SourceAlpha" type="matrix" values="0 0 0 0 0 0 0 0 0 0 0 0 0 0 0 0 0 0 127 0" result="hardAlpha"/>
<feOffset dy="4"/>
<feGaussianBlur stdDeviation="2"/>
<feComposite in2="hardAlpha" operator="out"/>
<feColorMatrix type="matrix" values="0 0 0 0 0 0 0 0 0 0 0 0 0 0 0 0 0 0 0.25 0"/>
<feBlend mode="normal" in2="BackgroundImageFix" result="effect1_dropShadow_167_534"/>
<feBlend mode="normal" in="SourceGraphic" in2="effect1_dropShadow_167_534" result="shape"/>
</filter>
</defs>
</svg>
